<svg xmlns="http://www.w3.org/2000/svg" xmlns:xlink="http://www.w3.org/1999/xlink" width="128" height="128" version="1.1" viewBox="0 0 128 128"><g id="surface1"><path style="stroke:none;fill-rule:nonzero;fill:#000;fill-opacity:1" d="M 8.800781 2 C 6.800781 3.101562 4.101562 5.398438 2.800781 7.199219 L 0.5 10.5 L 0.300781 63 L 0 115.5 L 2.300781 119.5 C 3.699219 122.101562 6 124.300781 8.800781 125.699219 C 13 127.800781 13.898438 127.800781 63.898438 127.898438 C 114.5 128 114.699219 127.898438 119.101562 125.699219 C 122.300781 124.101562 124.101562 122.300781 125.800781 119 L 128 114.5 L 127.800781 62.5 L 127.5 10.5 L 125.199219 7.199219 C 123.898438 5.398438 121.101562 3.101562 119 2 C 115.199219 0.101562 113 0 63.800781 0 C 15 0.101562 12.300781 0.199219 8.800781 2 Z M 56.5 25 C 58.300781 29 58.300781 29 64 29 C 69.699219 29 69.699219 29 71.5 25 C 73.5 20.5 74.898438 20.199219 81 22.601562 C 85 24.199219 85 24.300781 85 29.601562 C 85 34.800781 85.101562 35 89.601562 38.101562 L 94.199219 41.199219 L 98 39.101562 C 100.101562 38 102 37 102.300781 37 C 102.601562 37 104.5 39.199219 106.5 42 L 110.199219 47 L 107.800781 50.199219 C 105.601562 53.300781 105.5 54.699219 105 72 C 104.398438 93.601562 103.800781 95.5 95.101562 100.699219 C 87.601562 105.199219 77.800781 107.199219 64 107.199219 C 45 107.300781 31.5 102.699219 26.101562 94.601562 C 23.601562 90.800781 23.5 90 23 72.101562 C 22.5 54.699219 22.398438 53.300781 20.199219 50.199219 L 17.800781 47 L 21.5 42 C 23.5 39.199219 25.398438 37 25.699219 37 C 26 37 27.898438 38 30 39.101562 L 33.800781 41.199219 L 38.398438 38.101562 C 42.898438 35 43 34.800781 43 29.601562 C 43 24.300781 43.101562 24.199219 46.800781 22.699219 C 52.898438 20.101562 54.5 20.5 56.5 25 Z M 56.5 25"/><path style="stroke:none;fill-rule:nonzero;fill:#000;fill-opacity:1" d="M 39.601562 61.300781 C 37 63.199219 37.199219 68 40 70.199219 C 42.699219 72.398438 43.898438 72.398438 46.800781 70.398438 C 51 67.5 48.601562 60 43.398438 60 C 42.300781 60 40.601562 60.601562 39.601562 61.300781 Z M 39.601562 61.300781"/><path style="stroke:none;fill-rule:nonzero;fill:#000;fill-opacity:1" d="M 80.601562 61.898438 C 78.101562 64.601562 78.898438 69.101562 82.101562 70.898438 C 84.5 72.199219 85 72.199219 87.398438 70.699219 C 89.398438 69.398438 90 68.101562 90 65.5 C 90 60.199219 84.101562 58 80.601562 61.898438 Z M 80.601562 61.898438"/></g></svg>